<svg width="24" height="24" viewBox="0 0 24 24" fill="none" xmlns="http://www.w3.org/2000/svg">
<g clip-path="url(#clip0)">
<path d="M23.5 12.0031C23.5 5.6609 18.348 0.514648 12 0.514648C5.652 0.514648 0.5 5.6609 0.5 12.0031C0.5 15.4963 2.087 18.6444 4.571 20.7575C4.594 20.7805 4.617 20.7805 4.617 20.8035C4.824 20.9645 5.031 21.1255 5.261 21.2865C5.376 21.3555 5.468 21.4461 5.583 21.5381C7.48347 22.8266 9.7269 23.5152 12.023 23.5146C14.3191 23.5152 16.5625 22.8266 18.463 21.5381C18.578 21.4691 18.67 21.3785 18.785 21.3081C18.992 21.1485 19.222 20.9875 19.429 20.8265C19.452 20.8035 19.475 20.8035 19.475 20.7805C21.913 18.643 23.5 15.4963 23.5 12.0031ZM12 22.0671C9.838 22.0671 7.86 21.3771 6.227 20.2285C6.25 20.0445 6.296 19.862 6.342 19.678C6.47905 19.1793 6.68005 18.7005 6.94 18.2534C7.193 17.8164 7.492 17.4254 7.86 17.0804C8.205 16.7354 8.619 16.4148 9.033 16.1618C9.47 15.9088 9.93 15.7248 10.436 15.5868C10.9459 15.4494 11.4719 15.3803 12 15.3813C13.5678 15.3702 15.078 15.9716 16.209 17.0574C16.738 17.5864 17.152 18.2074 17.451 18.919C17.612 19.333 17.727 19.77 17.796 20.2285C16.0986 21.4219 14.0749 22.0638 12 22.0671ZM8.481 11.4296C8.27834 10.9656 8.17643 10.4639 8.182 9.95759C8.182 9.45302 8.274 8.94702 8.481 8.48702C8.688 8.02702 8.964 7.61446 9.309 7.26946C9.654 6.92446 10.068 6.6499 10.528 6.4429C10.988 6.2359 11.494 6.1439 12 6.1439C12.529 6.1439 13.012 6.2359 13.472 6.4429C13.932 6.6499 14.346 6.9259 14.691 7.26946C15.036 7.61446 15.312 8.02846 15.519 8.48702C15.726 8.94702 15.818 9.45302 15.818 9.95759C15.818 10.4866 15.726 10.9696 15.519 11.4281C15.3192 11.8813 15.0387 12.2944 14.691 12.6471C14.3381 12.9943 13.9251 13.2744 13.472 13.4737C12.5216 13.8643 11.4554 13.8643 10.505 13.4737C10.0519 13.2744 9.63886 12.9943 9.286 12.6471C8.93786 12.2995 8.66398 11.8848 8.481 11.4281V11.4296ZM19.153 19.057C19.153 19.011 19.13 18.988 19.13 18.942C18.9038 18.2224 18.5704 17.541 18.141 16.9208C17.7112 16.2961 17.183 15.7451 16.577 15.2893C16.1142 14.9411 15.6125 14.6478 15.082 14.4153C15.3233 14.2561 15.5469 14.0715 15.749 13.8647C16.0919 13.5262 16.393 13.1478 16.646 12.7377C17.1554 11.9008 17.4185 10.9372 17.405 9.95759C17.4121 9.23239 17.2712 8.51336 16.991 7.84446C16.7143 7.19994 16.3161 6.61476 15.818 6.1209C15.3207 5.63219 14.7354 5.242 14.093 4.9709C13.423 4.69115 12.703 4.55078 11.977 4.55834C11.2509 4.55123 10.5309 4.6921 9.861 4.97234C9.21305 5.24286 8.62635 5.64133 8.136 6.1439C7.64731 6.64068 7.2571 7.2255 6.986 7.86746C6.70576 8.53636 6.56489 9.25539 6.572 9.98059C6.572 10.4866 6.641 10.9696 6.779 11.4281C6.917 11.9111 7.101 12.3481 7.354 12.7607C7.584 13.1747 7.906 13.5427 8.251 13.8877C8.458 14.0947 8.688 14.2773 8.941 14.4383C8.40889 14.677 7.90703 14.9781 7.446 15.3353C6.848 15.7953 6.319 16.3458 5.882 16.9438C5.44825 17.5614 5.11449 18.2435 4.893 18.965C4.87 19.011 4.87 19.057 4.87 19.08C3.053 17.2414 1.926 14.7603 1.926 12.0031C1.926 6.4659 6.457 1.93921 12 1.93921C17.543 1.93921 22.074 6.4659 22.074 12.0031C22.071 14.6481 21.0208 17.1842 19.153 19.057Z" fill="white"/>
</g>
<defs>
<clipPath id="clip0">
<rect width="23" height="23" fill="white" transform="translate(0.5 0.514648)"/>
</clipPath>
</defs>
</svg>
