<svg width="38" height="38" viewBox="0 0 38 38" fill="none" xmlns="http://www.w3.org/2000/svg">
<g clip-path="url(#clip0)">
<path d="M24.6751 0.5H13.3173C2.95264 0.5 0.495605 2.95703 0.495605 13.3217V24.6795C0.495605 35.0441 2.95264 37.5012 13.3173 37.5012H24.6751C35.0397 37.5012 37.4968 35.0441 37.4968 24.6795V13.3217C37.4968 2.95703 35.0154 0.5 24.6751 0.5ZM30.3662 26.8949H27.6802C26.6627 26.8949 26.3494 26.0878 24.519 24.2332C22.9292 22.6919 22.225 22.4873 21.833 22.4873C21.2792 22.4873 21.122 22.6433 21.122 23.403V25.83C21.122 26.4809 20.9173 26.8717 19.1945 26.8717C16.3455 26.8717 13.1843 25.1489 10.9678 21.9392C7.62504 17.2356 6.71045 13.7125 6.71045 12.984C6.71045 12.5921 6.86654 12.2255 7.61926 12.2255H10.311C10.992 12.2255 11.251 12.5389 11.5158 13.2673C12.8467 17.1095 15.0632 20.4754 15.9778 20.4754C16.3154 20.4754 16.4715 20.3193 16.4715 19.4579V15.4896C16.3686 13.6593 15.4055 13.502 15.4055 12.8522C15.4055 12.5389 15.6645 12.2255 16.0795 12.2255H20.3126C20.8849 12.2255 21.0954 12.5389 21.0954 13.213V18.5664C21.0954 19.1445 21.3544 19.3492 21.5105 19.3492C21.8481 19.3492 22.1371 19.1445 22.7627 18.5178C24.6959 16.3499 26.0811 13.0072 26.0811 13.0072C26.2615 12.6152 26.5748 12.2487 27.2559 12.2487H29.9476C30.7547 12.2487 30.935 12.6638 30.7547 13.2419C30.417 14.8074 27.1229 19.4567 27.1229 19.4567C26.8396 19.9262 26.7309 20.1308 27.1229 20.6546C27.412 21.0466 28.352 21.8594 28.9775 22.5878C30.128 23.8944 31.0125 24.9905 31.2484 25.749C31.5132 26.5017 31.1224 26.8937 30.3627 26.8937L30.3662 26.8949Z" fill="white"/>
</g>
<defs>
<clipPath id="clip0">
<rect width="37" height="37" fill="white" transform="translate(0.5 0.5)"/>
</clipPath>
</defs>
</svg>
