<svg width="49" height="48" viewBox="0 0 49 48" fill="none" xmlns="http://www.w3.org/2000/svg">
<path d="M41.75 5.64062H7.25C6.42031 5.64062 5.75 6.29697 5.75 7.10938V40.8906C5.75 41.703 6.42031 42.3594 7.25 42.3594H41.75C42.5797 42.3594 43.25 41.703 43.25 40.8906V7.10938C43.25 6.29697 42.5797 5.64062 41.75 5.64062ZM37.4187 16.3579H34.4234C32.075 16.3579 31.6203 17.4503 31.6203 19.0567V22.5955H37.2266L36.4953 28.1354H31.6203V42.3594H25.775V28.14H20.8859V22.5955H25.775V18.5105C25.775 13.7692 28.7328 11.1852 33.0547 11.1852C35.1266 11.1852 36.9031 11.3366 37.4234 11.4055V16.3579H37.4187Z" fill="white"/>
</svg>
