<svg width="216" height="45" viewBox="0 0 216 45" fill="none" xmlns="http://www.w3.org/2000/svg">
<path d="M90.4917 3.02252L96.4501 17.2779L102.408 3.02252H105.525V20.4937H103.122V13.69L103.347 6.34637L97.3638 20.4937H95.5238L89.5529 6.38237L89.7907 13.69V20.4937H87.3873V3.02252H90.4917Z" fill="white"/>
<path d="M114.5 12.6461H112.285V20.4937H109.881V3.02252H112.285V10.7262H114.162L120.534 3.02252H123.526L116.566 11.4941L124.039 20.4937H121.097L114.5 12.6461Z" fill="white"/>
<path d="M132.501 13.1621L136.694 3.02252H139.486L133.039 17.5779C132.605 18.5058 132.2 19.1658 131.825 19.5578C131.449 19.9418 131.007 20.2378 130.498 20.4457C129.997 20.6457 129.367 20.7457 128.608 20.7457C127.949 20.7457 127.527 20.7097 127.344 20.6377L127.419 18.8138L128.558 18.8618C129.434 18.8618 130.085 18.4578 130.51 17.6499L130.823 17.0259L131.299 15.9579L125.09 3.02252H127.782L132.501 13.1621Z" fill="white"/>
<path d="M147.096 12.6461H144.881V20.4937H142.477V3.02252H144.881V10.7262H146.758L153.13 3.02252H156.122L149.162 11.4941L156.635 20.4937H153.693L147.096 12.6461Z" fill="white"/>
<path d="M162.493 13.978H156.384V12.1661H162.493V13.978Z" fill="white"/>
<path d="M165.197 3.02252H167.613V18.6098H176.6V3.02252H179.004V18.5618H180.919L180.694 24.7056H178.528V20.4937H165.197V3.02252Z" fill="white"/>
<path d="M194.989 4.91843H186.201V10.1502H190.733C192.635 10.1742 194.121 10.6422 195.189 11.5541C196.257 12.4661 196.791 13.706 196.791 15.274C196.791 16.8499 196.253 18.1058 195.176 19.0418C194.1 19.9778 192.631 20.4617 190.77 20.4937H183.785V3.02252H194.989V4.91843ZM186.201 12.0461V18.6098H190.595C191.788 18.6098 192.715 18.3058 193.374 17.6979C194.042 17.0899 194.375 16.2739 194.375 15.25C194.375 14.266 194.054 13.4901 193.411 12.9221C192.777 12.3541 191.872 12.0621 190.695 12.0461H186.201Z" fill="white"/>
<path d="M213.452 14.95C213.227 16.7979 212.513 18.2258 211.312 19.2338C210.118 20.2338 208.529 20.7337 206.542 20.7337C204.389 20.7337 202.662 19.9938 201.36 18.5138C200.067 17.0339 199.42 15.054 199.42 12.5741V10.8942C199.42 9.27024 199.72 7.8423 200.321 6.61036C200.93 5.37841 201.79 4.43445 202.9 3.77848C204.01 3.11451 205.295 2.78253 206.755 2.78253C208.691 2.78253 210.243 3.3025 211.412 4.34246C212.58 5.37441 213.26 6.80635 213.452 8.63827H211.036C210.828 7.24633 210.373 6.23837 209.672 5.6144C208.979 4.99043 208.007 4.67844 206.755 4.67844C205.22 4.67844 204.014 5.22242 203.138 6.31037C202.27 7.39832 201.836 8.94625 201.836 10.9542V12.6461C201.836 14.542 202.249 16.0499 203.075 17.1699C203.901 18.2898 205.057 18.8498 206.542 18.8498C207.878 18.8498 208.9 18.5618 209.609 17.9859C210.327 17.4019 210.803 16.3899 211.036 14.95H213.452Z" fill="white"/>
<path d="M93.3861 30.7753V39.6929H92.1594V31.743H88.8242L88.6581 35.277C88.5942 36.4611 88.4664 37.3512 88.2748 37.9473C88.0873 38.5435 87.8105 38.9824 87.4442 39.2642C87.0779 39.5418 86.588 39.6847 85.9746 39.6929H85.5721V38.7313L85.8277 38.7191C86.2238 38.6905 86.5284 38.568 86.7414 38.3516C86.9543 38.1311 87.1162 37.782 87.2269 37.3043C87.3377 36.8265 87.4165 36.0916 87.4633 35.0993L87.655 30.7753H93.3861Z" fill="white"/>
<path d="M98.8882 39.8154C97.9512 39.8154 97.1887 39.5214 96.6009 38.9334C96.0131 38.3414 95.7192 37.5513 95.7192 36.5632V36.3549C95.7192 35.6975 95.8491 35.1116 96.1089 34.5971C96.373 34.0786 96.7393 33.6743 97.2079 33.3844C97.6807 33.0904 98.1918 32.9434 98.7413 32.9434C99.64 32.9434 100.339 33.2272 100.837 33.7948C101.335 34.3623 101.584 35.1749 101.584 36.2324V36.704H96.9012C96.9182 37.3573 97.1163 37.8861 97.4954 38.2903C97.8788 38.6905 98.3643 38.8906 98.9521 38.8906C99.3696 38.8906 99.7231 38.8089 100.013 38.6456C100.302 38.4822 100.556 38.2658 100.773 37.9963L101.495 38.5353C100.916 39.3887 100.047 39.8154 98.8882 39.8154ZM98.7413 33.8744C98.2642 33.8744 97.8638 34.0418 97.5401 34.3766C97.2164 34.7074 97.0162 35.1728 96.9395 35.7731H100.402V35.6873C100.368 35.1116 100.207 34.6665 99.9169 34.3521C99.6273 34.0336 99.2354 33.8744 98.7413 33.8744Z" fill="white"/>
<path d="M109.195 39.6929H108.013V36.8633H104.838V39.6929H103.649V33.0659H104.838V35.9384H108.013V33.0659H109.195V39.6929Z" fill="white"/>
<path d="M116.16 33.0659H117.342V39.6929H116.16V34.8605L112.972 39.6929H111.79V33.0659H112.972V37.9045L116.16 33.0659Z" fill="white"/>
<path d="M125.477 39.6929H124.295V36.8633H121.119V39.6929H119.931V33.0659H121.119V35.9384H124.295V33.0659H125.477V39.6929Z" fill="white"/>
<path d="M130.742 38.8906C131.164 38.8906 131.533 38.7681 131.848 38.5231C132.163 38.2781 132.338 37.9718 132.372 37.6044H133.49C133.469 37.9841 133.332 38.3455 133.081 38.6884C132.83 39.0314 132.493 39.305 132.071 39.5092C131.654 39.7133 131.211 39.8154 130.742 39.8154C129.801 39.8154 129.051 39.5153 128.493 38.9151C127.94 38.3107 127.663 37.486 127.663 36.4407V36.2508C127.663 35.6057 127.786 35.032 128.033 34.5297C128.28 34.0275 128.634 33.6376 129.094 33.3599C129.558 33.0823 130.106 32.9434 130.736 32.9434C131.511 32.9434 132.154 33.166 132.666 33.611C133.181 34.0561 133.456 34.6339 133.49 35.3443H132.372C132.338 34.9156 132.167 34.5645 131.861 34.2909C131.558 34.0132 131.183 33.8744 130.736 33.8744C130.135 33.8744 129.669 34.0826 129.337 34.4991C129.009 34.9115 128.845 35.5097 128.845 36.2937V36.508C128.845 37.2716 129.009 37.8596 129.337 38.272C129.665 38.6844 130.133 38.8906 130.742 38.8906Z" fill="white"/>
<path d="M137.561 36.8694H136.698V39.6929H135.51V33.0659H136.698V35.8711H137.471L139.797 33.0659H141.228L138.494 36.2508L141.458 39.6929H139.957L137.561 36.8694Z" fill="white"/>
<path d="M142.609 36.3182C142.609 35.6689 142.741 35.0851 143.005 34.5665C143.274 34.0479 143.644 33.6478 144.117 33.3661C144.594 33.0843 145.137 32.9434 145.746 32.9434C146.688 32.9434 147.448 33.2558 148.027 33.8805C148.611 34.5052 148.903 35.3362 148.903 36.3733V36.4529C148.903 37.0981 148.773 37.6779 148.513 38.1923C148.257 38.7027 147.889 39.1008 147.408 39.3867C146.93 39.6725 146.381 39.8154 145.759 39.8154C144.822 39.8154 144.062 39.503 143.478 38.8783C142.899 38.2536 142.609 37.4267 142.609 36.3978V36.3182ZM143.798 36.4529C143.798 37.1879 143.974 37.7779 144.328 38.223C144.686 38.668 145.163 38.8906 145.759 38.8906C146.36 38.8906 146.837 38.666 147.19 38.2168C147.544 37.7636 147.721 37.1307 147.721 36.3182C147.721 35.5914 147.54 35.0034 147.178 34.5542C146.82 34.101 146.343 33.8744 145.746 33.8744C145.163 33.8744 144.692 34.0969 144.334 34.542C143.977 34.9871 143.798 35.624 143.798 36.4529Z" fill="white"/>
<path d="M155.44 34.003H152.252V39.6929H151.063V33.0659H155.44V34.003Z" fill="white"/>
<path d="M156.616 36.3182C156.616 35.6689 156.748 35.0851 157.013 34.5665C157.281 34.0479 157.651 33.6478 158.124 33.3661C158.601 33.0843 159.144 32.9434 159.753 32.9434C160.695 32.9434 161.455 33.2558 162.034 33.8805C162.618 34.5052 162.91 35.3362 162.91 36.3733V36.4529C162.91 37.0981 162.78 37.6779 162.52 38.1923C162.264 38.7027 161.896 39.1008 161.415 39.3867C160.938 39.6725 160.388 39.8154 159.766 39.8154C158.829 39.8154 158.069 39.503 157.485 38.8783C156.906 38.2536 156.616 37.4267 156.616 36.3978V36.3182ZM157.805 36.4529C157.805 37.1879 157.982 37.7779 158.335 38.223C158.693 38.668 159.17 38.8906 159.766 38.8906C160.367 38.8906 160.844 38.666 161.197 38.2168C161.551 37.7636 161.728 37.1307 161.728 36.3182C161.728 35.5914 161.547 35.0034 161.185 34.5542C160.827 34.101 160.35 33.8744 159.753 33.8744C159.17 33.8744 158.699 34.0969 158.341 34.542C157.984 34.9871 157.805 35.624 157.805 36.4529Z" fill="white"/>
<path d="M167.441 36.3672H164.323V35.4423H167.441V36.3672Z" fill="white"/>
<path d="M170.598 36.2018V39.6929H169.371V30.7753H172.802C173.82 30.7753 174.617 31.0244 175.192 31.5225C175.771 32.0207 176.061 32.6801 176.061 33.5008C176.061 34.3664 175.778 35.034 175.211 35.5036C174.649 35.9691 173.842 36.2018 172.79 36.2018H170.598ZM170.598 35.2402H172.802C173.458 35.2402 173.961 35.0932 174.31 34.7992C174.659 34.5012 174.834 34.0724 174.834 33.513C174.834 32.9822 174.659 32.5576 174.31 32.2391C173.961 31.9206 173.482 31.7552 172.873 31.743H170.598V35.2402Z" fill="white"/>
<path d="M182.221 39.6929C182.153 39.5622 182.097 39.3295 182.055 38.9947C181.505 39.5418 180.849 39.8154 180.087 39.8154C179.405 39.8154 178.845 39.6316 178.407 39.2642C177.972 38.8926 177.755 38.423 177.755 37.8555C177.755 37.1654 178.028 36.6305 178.573 36.2508C179.122 35.867 179.893 35.6751 180.886 35.6751H182.036V35.1545C182.036 34.7584 181.912 34.444 181.665 34.2113C181.418 33.9744 181.054 33.856 180.573 33.856C180.151 33.856 179.797 33.9581 179.512 34.1623C179.227 34.3664 179.084 34.6135 179.084 34.9034H177.895C177.895 34.5726 178.017 34.2541 178.26 33.9479C178.507 33.6376 178.839 33.3926 179.256 33.2129C179.678 33.0333 180.14 32.9434 180.643 32.9434C181.439 32.9434 182.063 33.1354 182.515 33.5192C182.966 33.8989 183.201 34.4236 183.218 35.0932V38.1433C183.218 38.7517 183.299 39.2356 183.46 39.5949V39.6929H182.221ZM180.259 38.8293C180.63 38.8293 180.981 38.7374 181.314 38.5537C181.646 38.37 181.887 38.1311 182.036 37.8371V36.4774H181.109C179.661 36.4774 178.937 36.8837 178.937 37.6962C178.937 38.0515 179.06 38.3291 179.307 38.5292C179.555 38.7293 179.872 38.8293 180.259 38.8293Z" fill="white"/>
<path d="M190.132 33.0659H191.314V39.6929H190.132V34.8605L186.944 39.6929H185.762V33.0659H186.944V37.9045L190.132 33.0659ZM190.451 30.6528C190.451 31.1469 190.275 31.545 189.921 31.8471C189.572 32.1452 189.112 32.2942 188.541 32.2942C187.97 32.2942 187.508 32.1431 187.154 31.841C186.801 31.5388 186.624 31.1428 186.624 30.6528H187.589C187.589 30.9386 187.67 31.1632 187.832 31.3265C187.994 31.4858 188.23 31.5654 188.541 31.5654C188.839 31.5654 189.071 31.4858 189.237 31.3265C189.408 31.1673 189.493 30.9427 189.493 30.6528H190.451Z" fill="white"/>
<path d="M193.487 36.3182C193.487 35.6689 193.619 35.0851 193.883 34.5665C194.152 34.0479 194.522 33.6478 194.995 33.3661C195.472 33.0843 196.015 32.9434 196.624 32.9434C197.566 32.9434 198.326 33.2558 198.905 33.8805C199.489 34.5052 199.781 35.3362 199.781 36.3733V36.4529C199.781 37.0981 199.651 37.6779 199.391 38.1923C199.135 38.7027 198.767 39.1008 198.285 39.3867C197.808 39.6725 197.259 39.8154 196.637 39.8154C195.7 39.8154 194.94 39.503 194.356 38.8783C193.777 38.2536 193.487 37.4267 193.487 36.3978V36.3182ZM194.676 36.4529C194.676 37.1879 194.852 37.7779 195.206 38.223C195.564 38.668 196.041 38.8906 196.637 38.8906C197.238 38.8906 197.715 38.666 198.068 38.2168C198.422 37.7636 198.599 37.1307 198.599 36.3182C198.599 35.5914 198.418 35.0034 198.055 34.5542C197.698 34.101 197.221 33.8744 196.624 33.8744C196.041 33.8744 195.57 34.0969 195.212 34.542C194.854 34.9871 194.676 35.624 194.676 36.4529Z" fill="white"/>
<path d="M207.5 39.6929H206.318V36.8633H203.142V39.6929H201.954V33.0659H203.142V35.9384H206.318V33.0659H207.5V39.6929Z" fill="white"/>
<path d="M214.26 39.6929C214.192 39.5622 214.137 39.3295 214.094 38.9947C213.545 39.5418 212.889 39.8154 212.127 39.8154C211.445 39.8154 210.885 39.6316 210.446 39.2642C210.012 38.8926 209.794 38.423 209.794 37.8555C209.794 37.1654 210.067 36.6305 210.612 36.2508C211.162 35.867 211.933 35.6751 212.925 35.6751H214.075V35.1545C214.075 34.7584 213.952 34.444 213.705 34.2113C213.458 33.9744 213.093 33.856 212.612 33.856C212.19 33.856 211.837 33.9581 211.551 34.1623C211.266 34.3664 211.123 34.6135 211.123 34.9034H209.935C209.935 34.5726 210.056 34.2541 210.299 33.9479C210.546 33.6376 210.878 33.3926 211.296 33.2129C211.718 33.0333 212.18 32.9434 212.682 32.9434C213.479 32.9434 214.103 33.1354 214.554 33.5192C215.006 33.8989 215.24 34.4236 215.257 35.0932V38.1433C215.257 38.7517 215.338 39.2356 215.5 39.5949V39.6929H214.26ZM212.299 38.8293C212.67 38.8293 213.021 38.7374 213.353 38.5537C213.685 38.37 213.926 38.1311 214.075 37.8371V36.4774H213.149C211.701 36.4774 210.976 36.8837 210.976 37.6962C210.976 38.0515 211.1 38.3291 211.347 38.5292C211.594 38.7293 211.911 38.8293 212.299 38.8293Z" fill="white"/>
<path d="M65.2966 2.5472C64.3582 2.5472 63.4772 2.55637 62.5867 2.57473V0.0146484H61.6005C42.488 0.0146484 36.0821 3.91441 34.0138 6.01569C31.9455 3.91441 25.5396 0.0146484 6.41758 0.0146484H5.43132V2.57473C4.55038 2.55637 3.66945 2.5472 2.73106 2.5472H0.5V39.5169H2.73106C26.3152 39.5169 31.1316 44.1232 31.821 44.9858H36.2449C36.9917 44.0865 41.9039 39.5169 65.2966 39.5169H67.5276V2.5472H65.2966ZM32.5392 37.8469C29.2453 35.7732 22.3319 33.3782 7.89219 33.2131V2.12511C28.1154 2.34533 32.0221 7.07092 32.5392 7.8417V37.8469ZM60.1354 33.2131C45.6958 33.3691 38.7823 35.7732 35.4884 37.8469V7.85087C36.0438 7.00669 40.0654 2.3545 60.1354 2.12511V33.2131Z" fill="white"/>
</svg>
