<svg width="38" height="42" viewBox="0 0 38 42" fill="none" xmlns="http://www.w3.org/2000/svg">
<g clip-path="url(#clip0)">
<path d="M33.5357 2.73633H4.46429C2.27567 2.73633 0.5 4.48931 0.5 6.64996V35.35C0.5 37.5106 2.27567 39.2636 4.46429 39.2636H33.5357C35.7243 39.2636 37.5 37.5106 37.5 35.35V6.64996C37.5 4.48931 35.7243 2.73633 33.5357 2.73633ZM29.4971 15.6839C29.5136 15.9122 29.5136 16.1487 29.5136 16.377C29.5136 23.446 24.0627 31.5912 14.1025 31.5912C11.0301 31.5912 8.1808 30.7107 5.78571 29.1941C6.22344 29.2431 6.64464 29.2594 7.09062 29.2594C9.62612 29.2594 11.9551 28.4114 13.8134 26.9764C11.4348 26.9275 9.43616 25.3865 8.75067 23.2666C9.58482 23.3889 10.3364 23.3889 11.1953 23.1688C8.71763 22.6714 6.85937 20.5189 6.85937 17.918V17.8527C7.5779 18.2523 8.42031 18.4969 9.30402 18.5295C8.56107 18.0416 7.95202 17.3797 7.53121 16.603C7.11041 15.8262 6.89095 14.9586 6.89241 14.0777C6.89241 13.083 7.1567 12.1698 7.62746 11.3789C10.2951 14.624 14.3007 16.7439 18.7935 16.9722C18.0254 13.3439 20.7757 10.4005 24.0792 10.4005C25.6402 10.4005 27.0442 11.0447 28.0353 12.0883C29.2576 11.86 30.4304 11.4116 31.471 10.8C31.0663 12.0394 30.2156 13.083 29.0924 13.7434C30.1826 13.6293 31.2397 13.3276 32.2143 12.9118C31.4792 13.9799 30.5542 14.9257 29.4971 15.6839Z" fill="white"/>
</g>
<defs>
<clipPath id="clip0">
<rect width="37" height="41" fill="white" transform="translate(0.5 0.5)"/>
</clipPath>
</defs>
</svg>
